<svg xmlns="http://www.w3.org/2000/svg" xmlns:xlink="http://www.w3.org/1999/xlink" viewBox="0 0 1754.35 180.19"><defs><style>.cls-1{fill:url(#linear-gradient);}</style><linearGradient id="linear-gradient" y1="90.09" x2="1754.35" y2="90.09" gradientUnits="userSpaceOnUse"><stop offset="0" stop-color="#c2a240"/><stop offset="1" stop-color="#f2c540"/></linearGradient></defs><title>logo</title><g id="Layer_2" data-name="Layer 2"><g id="Layer_1-2" data-name="Layer 1"><path class="cls-1" d="M407.76,0,338.7,51.07l-31.81,90.64,24.87,38.48H464.47L527.89,0Zm18.75,114-23.18,17.26H384.61l-8.51-12.94,17.15-48.2L421.8,48.91h27.69ZM846.78,38.48,821.92,0H727l-52.1,38.48L638.68,141.71l24.87,38.48h95l52.09-38.48Zm-90.11,82.73L743,131.27H712.11l-5.68-8.63L728.8,59l13.65-10.07h30.92L779,57.54Zm233.82,10.06-17.25,48.92H809.59l13.55-38.13L933.45,48.91H861.14L878.41,0h158.25L1023.1,38.13,912.44,131.27Zm96.74,0h78L1148,180.19H984.37l13.55-38.13,110.3-93.15h-72.28L1053.19,0h158.25l-13.55,38.13ZM1264.44,0l-52.09,38.48-36.19,103.23L1201,180.19H1296l52.11-38.48,36.19-103.23L1359.39,0Zm29.69,121.21-13.64,10.06h-30.93l-5.67-8.63L1266.27,59l13.64-10.07h30.94l5.66,8.63ZM1754.35,0l-63.42,180.19h-61.15L1693.21,0ZM325.23,32.73,273.34,180.19H212.2L255.66,56.11l-4.49-7.2H231l-23.6,17.63L167.24,180.19H106.1L149.56,56.11l-4.49-7.2H124.58l-23.2,17.26-40.24,114H0L49.94,38.48,102,0h95.89L215.7,27.69,253,0H304Zm328,23.74H602.85L585,69.77,546.14,180.19H485L534.93,38.48,587,0h86.18ZM1672.47,0l-49.94,141.71v.17L1609,180.19H1473.46l-21.21-32.73L1504.14,0h61.15l-43.82,124.08,4.84,7.19h21.6L1571.08,114,1611.32,0Z"/></g></g></svg>